<svg width="17" height="16" viewBox="0 0 17 16" fill="none" xmlns="http://www.w3.org/2000/svg">
<path d="M11.667 1.62012H5.00033C3.00033 1.62012 1.66699 2.95345 1.66699 4.95345V8.95345C1.66699 10.9535 3.00033 12.2868 5.00033 12.2868V13.7068C5.00033 14.2401 5.59366 14.5601 6.03366 14.2601L9.00033 12.2868H11.667C13.667 12.2868 15.0003 10.9535 15.0003 8.95345V4.95345C15.0003 2.95345 13.667 1.62012 11.667 1.62012ZM8.33366 9.73345C8.05366 9.73345 7.83366 9.50678 7.83366 9.23345C7.83366 8.96012 8.05366 8.73345 8.33366 8.73345C8.61366 8.73345 8.83366 8.96012 8.83366 9.23345C8.83366 9.50678 8.61366 9.73345 8.33366 9.73345ZM9.17366 6.96678C8.91366 7.14012 8.83366 7.25345 8.83366 7.44012V7.58012C8.83366 7.85345 8.60699 8.08012 8.33366 8.08012C8.06033 8.08012 7.83366 7.85345 7.83366 7.58012V7.44012C7.83366 6.66678 8.40033 6.28678 8.61366 6.14012C8.86033 5.97345 8.94033 5.86012 8.94033 5.68678C8.94033 5.35345 8.66699 5.08012 8.33366 5.08012C8.00033 5.08012 7.72699 5.35345 7.72699 5.68678C7.72699 5.96012 7.50033 6.18678 7.22699 6.18678C6.95366 6.18678 6.72699 5.96012 6.72699 5.68678C6.72699 4.80012 7.44699 4.08012 8.33366 4.08012C9.22033 4.08012 9.94033 4.80012 9.94033 5.68678C9.94033 6.44678 9.38033 6.82678 9.17366 6.96678Z" fill="#272343"/>
</svg>
