<svg width="23" height="21" viewBox="0 0 23 21" fill="none" xmlns="http://www.w3.org/2000/svg">
<mask id="mask0_856_5512" style="mask-type:alpha" maskUnits="userSpaceOnUse" x="0" y="0" width="24" height="21">
<rect width="24" height="21" rx="10.5" fill="#D9D9D9"/>
</mask>
<g mask="url(#mask0_856_5512)">
<path d="M20.0375 13.8783L19.1281 14.2546C18.9242 14.3408 18.8223 14.576 18.9007 14.7877L19.0732 15.2502C19.1202 15.3835 19.0497 15.5324 18.9086 15.5716L18.5244 15.6735C18.1795 15.7676 18.1089 16.2458 18.4147 16.434L18.5793 16.5359C18.6969 16.6065 18.7204 16.7789 18.6185 16.873L18.493 16.9985C18.3519 17.1396 18.3284 17.3669 18.4382 17.5315C18.7753 18.0333 18.9634 18.6997 18.6577 19.2641C18.2657 19.9854 17.176 19.6561 16.541 19.5855C15.4199 19.4287 14.3772 20.1892 14.1891 21.3103L13.9774 22.5725H4.51491L4.96961 21.4514C5.94957 19.0524 5.54191 16.3086 3.91126 14.2938C3.51927 13.7999 3.15865 13.2824 2.86074 12.7258C2.06893 11.2049 1.70831 9.5194 2.00622 7.81035C2.28845 6.19538 3.06457 4.65097 4.35028 3.60829C5.67518 2.53426 7.37639 1.97764 9.04624 1.75029C10.6769 1.52294 12.3703 1.60918 13.9068 2.22067C16.8702 3.40446 18.5401 6.61872 18.7361 9.6762C18.7439 9.79379 18.6734 9.89571 18.5636 9.94275C18.3206 10.0368 18.2265 10.3504 18.3755 10.5699L20.2178 13.2511C20.3746 13.4628 20.2805 13.7763 20.0375 13.8783Z" stroke="#272343" stroke-width="1.3"/>
<path d="M6.93829 8.99967L9.04147 10.2059V10.9269L5.89543 8.99967H6.93829ZM5.89875 7.99967L9.04147 6.07865V6.78691L6.9377 7.99967H5.89875ZM13.8887 10.4478L11.785 9.23509V8.52683L14.9277 10.4478H13.8887ZM13.8881 11.4478H14.931L11.785 13.3751V12.6541L13.8881 11.4478Z" fill="#272343" stroke="#272343"/>
</g>
</svg>
