<svg width="14" height="14" viewBox="0 0 14 14" fill="none" xmlns="http://www.w3.org/2000/svg">
<path opacity="0.4" d="M9.79301 0.333008H4.20634C1.77967 0.333008 0.333008 1.77967 0.333008 4.20634V9.78634C0.333008 12.2197 1.77967 13.6663 4.20634 13.6663H9.78634C12.213 13.6663 13.6597 12.2197 13.6597 9.79301V4.20634C13.6663 1.77967 12.2197 0.333008 9.79301 0.333008Z" fill="#272343"/>
<path d="M11.3533 6.6466L8.49333 3.7866C8.3 3.59327 7.98 3.59327 7.78667 3.7866C7.59333 3.97993 7.59333 4.29993 7.78667 4.49327L9.79333 6.49994H3C2.72667 6.49994 2.5 6.7266 2.5 6.99994C2.5 7.27327 2.72667 7.49994 3 7.49994H9.79333L7.78667 9.5066C7.59333 9.69994 7.59333 10.0199 7.78667 10.2133C7.88667 10.3133 8.01333 10.3599 8.14 10.3599C8.26667 10.3599 8.39333 10.3133 8.49333 10.2133L11.3533 7.35327C11.4467 7.25994 11.5 7.13327 11.5 6.99994C11.5 6.8666 11.4467 6.73994 11.3533 6.6466Z" fill="white"/>
</svg>
