<svg width="25" height="24" viewBox="0 0 25 24" fill="none" xmlns="http://www.w3.org/2000/svg">
<path d="M3.71265 19.2776L3.71262 19.2774L2.38262 11.3175L2.38243 11.3164C2.29529 10.8018 2.37393 10.1853 2.59684 9.59874C2.81973 9.01224 3.17063 8.49841 3.58132 8.17069L3.58201 8.17013L10.512 2.62009L10.5132 2.61912C11.6675 1.68881 13.5171 1.69425 14.6871 2.63026L14.6872 2.63037L21.6157 8.16914C21.6159 8.16936 21.6162 8.16959 21.6165 8.16981C22.0226 8.49747 22.3714 9.01146 22.5946 9.59874C22.8177 10.1857 22.8989 10.8031 22.8161 11.3187C22.816 11.3192 22.8159 11.3197 22.8158 11.3202L21.4865 19.2763C21.4865 19.2765 21.4864 19.2768 21.4864 19.2771C21.2266 20.8071 19.7444 22.0598 18.1995 22.0598H6.99945C5.42309 22.0598 3.97234 20.8358 3.71265 19.2776ZM10.8283 3.0184L10.8269 3.01954L3.8969 8.56959L3.89545 8.57076C3.52254 8.87171 3.23876 9.32546 3.06363 9.78391C2.88857 10.2422 2.79752 10.7695 2.87627 11.242L2.8763 11.2422L4.2063 19.2022L4.20666 19.2043C4.42767 20.4935 5.68508 21.5598 6.99945 21.5598H18.1995C19.515 21.5598 20.7719 20.4923 20.9924 19.1935L20.9926 19.1922L22.3226 11.2323L22.3227 11.2321C22.4017 10.7579 22.3071 10.2274 22.1312 9.76941C21.9555 9.31152 21.6719 8.85683 21.3027 8.56009L21.3017 8.55931L14.3717 3.01927L14.3717 3.01922L14.3658 3.0146C13.8649 2.62647 13.2225 2.43984 12.5895 2.43984C11.9669 2.43984 11.3215 2.62637 10.8283 3.0184Z" fill="#292D32" stroke="#272343"/>
<path d="M12.5996 15.75C11.0858 15.75 9.84961 14.5139 9.84961 13C9.84961 11.4861 11.0858 10.25 12.5996 10.25C14.1135 10.25 15.3496 11.4861 15.3496 13C15.3496 14.5139 14.1135 15.75 12.5996 15.75ZM12.5996 10.75C11.3635 10.75 10.3496 11.7639 10.3496 13C10.3496 14.2361 11.3635 15.25 12.5996 15.25C13.8358 15.25 14.8496 14.2361 14.8496 13C14.8496 11.7639 13.8358 10.75 12.5996 10.75Z" fill="#292D32" stroke="#272343"/>
</svg>
