<svg width="25" height="24" viewBox="0 0 25 24" fill="none" xmlns="http://www.w3.org/2000/svg">
<path d="M13.3194 2.25984L19.8294 5.76984C20.5894 6.17984 20.5894 7.34984 19.8294 7.75984L13.3194 11.2698C12.7394 11.5798 12.0594 11.5798 11.4794 11.2698L4.96941 7.75984C4.20941 7.34984 4.20941 6.17984 4.96941 5.76984L11.4794 2.25984C12.0594 1.94984 12.7394 1.94984 13.3194 2.25984Z" stroke="#272343" stroke-width="1.5" stroke-linecap="round" stroke-linejoin="round"/>
<path d="M4.00941 10.1297L10.0594 13.1597C10.8094 13.5397 11.2894 14.3097 11.2894 15.1497V20.8697C11.2894 21.6997 10.4194 22.2297 9.67941 21.8597L3.62941 18.8297C2.87941 18.4497 2.39941 17.6797 2.39941 16.8397V11.1197C2.39941 10.2897 3.26941 9.75968 4.00941 10.1297Z" stroke="#272343" stroke-width="1.5" stroke-linecap="round" stroke-linejoin="round"/>
<path d="M20.7898 10.1297L14.7398 13.1597C13.9898 13.5397 13.5098 14.3097 13.5098 15.1497V20.8697C13.5098 21.6997 14.3798 22.2297 15.1198 21.8597L21.1698 18.8297C21.9198 18.4497 22.3998 17.6797 22.3998 16.8397V11.1197C22.3998 10.2897 21.5298 9.75968 20.7898 10.1297Z" stroke="#292D32" stroke-width="1.5" stroke-linecap="round" stroke-linejoin="round"/>
</svg>
